<?xml version="1.0" encoding="UTF-8"?>
<svg id="Calque_1" data-name="Calque 1" xmlns="http://www.w3.org/2000/svg" xmlns:xlink="http://www.w3.org/1999/xlink" viewBox="0 0 1000 642.57">
  <defs>
    <style>
      .cls-1 {
        fill: none;
      }

      .cls-2 {
        clip-path: url(#clippath-1);
      }

      .cls-3 {
        fill: #fff;
      }

      .cls-4 {
        clip-path: url(#clippath);
      }
    </style>
    <clipPath id="clippath">
      <rect class="cls-1" x="0" width="1000" height="642.57"/>
    </clipPath>
    <clipPath id="clippath-1">
      <rect class="cls-1" x="0" width="1000" height="642.57"/>
    </clipPath>
  </defs>
  <g id="Logo_mezzanotte34_mini_blanc">
    <g class="cls-4">
      <path class="cls-3" d="M45.97,45.97h908.06v550.63H45.97V45.97ZM0,642.57h1000V0H0v642.57Z"/>
      <g class="cls-2">
        <path class="cls-3" d="M200.32,378.14v-228.12h-59.7v228.18c-10.51,8.68-17.24,21.78-17.24,36.43s6.72,27.75,17.24,36.43v41.49h59.7v-41.43c10.52-8.68,17.24-21.83,17.24-36.49s-6.72-27.81-17.24-36.49M195.72,414.63c0,10.86-6.9,20.11-16.49,23.62-.4.23-.8.34-1.26.46-2.36.75-4.89,1.15-7.47,1.15-13.96,0-25.28-11.26-25.28-25.23,0-4.54,1.15-8.73,3.28-12.41,4.31-7.64,12.53-12.81,22.01-12.81s17.64,5.17,21.95,12.81c2.13,3.68,3.28,7.87,3.28,12.41"/>
        <path class="cls-3" d="M820.36,376.84v-226.82h-53.66l-195.05,195.57c5.57,13.29,8.54,27.31,8.54,41.86,0,17.59-4.38,34.44-12.47,49.88h141.61v55.22h111.04v-55.22h56.26v-60.49h-56.26ZM709.33,376.84h-83.87l83.87-83.42v83.42Z"/>
        <path class="cls-3" d="M557.91,376.84c0,13.51-3.26,26.42-9.28,38.52-22.27,44.9-82.46,77.19-152.75,77.19-55.22,0-107.77-21.23-132.7-49.88l32.36-41.42c16.48,10.61,41.42,30.8,87.06,30.8,40.38,0,68.51-25.01,68.51-55.22,0-33.47-31.84-55.22-68.51-55.22s-55.22,13.81-66.35,22.27l-32.36-40.38,92.92-92.92h-103.02v-60.56h267.12v53.66l-70.14,70.66c41.78,15.52,73.18,44.01,83.5,78.01v.07c2.37,7.87,3.64,16.03,3.64,24.42"/>
      </g>
    </g>
  </g>
</svg>