<?xml version="1.0" encoding="UTF-8"?>
<svg xmlns="http://www.w3.org/2000/svg" viewBox="0 0 741.77 148.94">
  <defs>
    <style>
      .cls-1 {
        fill: none;
      }

      .cls-2 {
        fill: #fff;
      }
    </style>
  </defs>
  <g id="Calque_2">
    <rect class="cls-1" x="0" width="741.77" height="148.94"/>
  </g>
  <g id="Calque_1">
    <g>
      <path class="cls-2" d="M688.11,83.22v-39.63h-9.38l-34.08,34.17c.97,2.32,1.49,4.77,1.49,7.31,0,3.07-.77,6.02-2.18,8.71h24.74v9.65h19.4v-9.65h9.83v-10.57h-9.83ZM668.71,83.22h-14.65l14.65-14.58v14.58Z"/>
      <path class="cls-2" d="M97.53,43.59l-18.57,26.43-18.47-26.43h-16.66v59.84h10.91v-33.23l13.11,18.78h11.11l15.14-21.64v36.09h20.01v-59.84h-16.57Z"/>
      <path class="cls-2" d="M218.44,65.53h-44.33v10.91h15.14l-18.96,27h46.25v-10.91h-17.05l18.96-27Z"/>
      <path class="cls-2" d="M264.21,65.53h-44.32v10.91h15.12l-18.48,26.32-.48.68h46.25v-10.91h-17.04l18.95-27Z"/>
      <path class="cls-2" d="M314.28,66.01c-7.56,0-12.35-2.4-19.62-2.4-16.09,0-29.21,9.38-29.21,20.86s13.13,20.88,29.21,20.88c7.27,0,12.06-2.4,19.62-2.4,3.27,0,5.75,1.54,6.8,2.4v-41.74c-1.04,1.15-3.53,2.4-6.8,2.4ZM301.07,93.78c-.86.37-2.21.67-4.01.67-7.28,0-12.35-4.51-12.35-9.97s5.07-9.96,12.35-9.96c1.81,0,3.16.48,4.01.78v18.48Z"/>
      <path class="cls-2" d="M371.17,63.61c-7.37,0-12.65,4.22-16.38,11.01l-4.12,7.47v-16.57h-20.01v37.91h17.14l11.2-20.3c.48-.95,1.34-2.49,2.4-2.49s1.91.87,1.91,1.91v20.88h20.01v-27.67c0-6.69-5.46-12.15-12.15-12.15Z"/>
      <path class="cls-2" d="M419.24,63.61c-16.09,0-29.21,9.38-29.21,20.86s13.13,20.88,29.21,20.88,29.2-9.38,29.2-20.88-13.11-20.86-29.2-20.86ZM419.24,94.44c-5.46,0-9.97-4.51-9.97-9.97s4.51-9.96,9.97-9.96,10.05,4.51,10.05,9.96-4.6,9.97-10.05,9.97Z"/>
      <path class="cls-2" d="M476.49,65.53v-18.76h-20.01v18.76h-6.52v10.91h6.52v13.8c0,7.28,5.94,13.21,13.21,13.21h12.16v-9.38h-2.77c-1.45,0-2.6-1.15-2.6-2.58v-15.04h10.16v-10.91h-10.16Z"/>
      <path class="cls-2" d="M523.03,76.43v-10.91h-10.16v-18.76h-20.01v18.76h-6.52v10.91h6.52v13.8c0,7.28,5.94,13.21,13.21,13.21h12.16v-9.38h-2.78c-1.43,0-2.58-1.15-2.58-2.58v-15.04h10.16Z"/>
      <path class="cls-2" d="M642.26,83.22c0,2.36-.57,4.62-1.62,6.73-3.89,7.85-14.41,13.49-26.69,13.49-9.65,0-18.83-3.71-23.19-8.71l5.65-7.24c2.88,1.85,7.24,5.38,15.21,5.38,7.05,0,11.97-4.37,11.97-9.65,0-5.85-5.56-9.65-11.97-9.65s-9.65,2.41-11.59,3.89l-5.65-7.05,16.24-16.24h-18v-10.58h46.67v9.38l-12.25,12.34c7.3,2.71,12.79,7.69,14.59,13.63h0c.41,1.39.64,2.81.64,4.28Z"/>
      <path class="cls-2" d="M166.69,71.63c-.11-.14-.2-.27-.21-.28-.86-1.1-2.34-2.73-4.54-4.24-4.17-2.86-9.49-4.19-16.74-4.19-9.46,0-16.91,2.95-22.13,8.77-5.63,6.34-4.94,17.74-.6,23.31,4.95,6.31,12.81,9.54,23.38,9.6h.29c17.69,0,23.04-8.77,23.26-9.14l.45-.78-.9.02c-2.28.07-4.53-.29-6.68-1.08-1.49-.55-2.97-1.33-4.28-2.26-.46-.33-.84-.63-1.11-.86l-.39-.33-.32.4c-.19.23-.5.6-.96,1.03-.45.43-.9.79-1.39,1.1-1.56.99-4.3,2.16-8.54,2.16-5.07,0-9.49-3.18-10.15-7.2h21.68l9,.05c1.05-.03,2.98-.31,4.1-1.83.46-.61.69-1.32.79-2.45.48-4.98-2.31-9.53-4.01-11.8ZM135.3,78.93c.82-3.49,4.16-6.85,10.08-6.87h.07c7.77,0,9.5,4.71,9.88,6.87h-20.03Z"/>
      <path class="cls-2" d="M573.09,71.63l-.21-.28c-.86-1.1-2.34-2.72-4.55-4.24-4.16-2.86-9.48-4.19-16.73-4.19-9.47,0-16.91,2.95-22.14,8.77-5.62,6.34-4.94,17.74-.59,23.31,4.94,6.31,12.81,9.54,23.38,9.6h.28c17.7,0,23.04-8.77,23.26-9.14l.46-.78-.9.02c-2.28.06-4.53-.3-6.68-1.08-1.49-.55-2.98-1.33-4.29-2.26-.46-.33-.83-.64-1.1-.86l-.39-.33-.32.4c-.19.23-.5.59-.96,1.03-.45.43-.91.79-1.39,1.1-1.56.99-4.3,2.16-8.54,2.16-5.07,0-9.49-3.18-10.16-7.2h21.73l8.96.05c1.05-.03,2.98-.31,4.1-1.83.45-.61.68-1.32.79-2.45.35-3.68-1.07-7.87-4.01-11.8ZM541.7,78.93c.82-3.49,4.16-6.85,10.07-6.87h.08c7.77,0,9.5,4.71,9.88,6.87h-20.03Z"/>
    </g>
    <path class="cls-2" d="M721.53,130.39H20.25V18.56h701.28v111.83ZM28.25,122.39h685.28V26.56H28.25v95.83Z"/>
  </g>
</svg>