<?xml version="1.0" encoding="UTF-8"?>
<svg id="Calque_1" xmlns="http://www.w3.org/2000/svg" version="1.1" viewBox="0 0 377 82.3">
  <!-- Generator: Adobe Illustrator 29.2.1, SVG Export Plug-In . SVG Version: 2.1.0 Build 116)  -->
  <defs>
    <style>
      .st0 {
        isolation: isolate;
      }

      .st1 {
        fill: #fe1b00;
      }
    </style>
  </defs>
  <g class="st0">
    <g class="st0">
      <path class="st1" d="M3.3,77.6L14.7,8.9h29.7c5.2,0,9.5.7,12.9,2.1,3.4,1.4,5.7,3.4,7.1,6,1.4,2.6,1.7,5.6,1.2,9.1-.5,2.5-1.4,4.7-2.9,6.9-1.5,2.1-3.2,3.9-5.5,5.2-2.2,1.4-4.7,2.4-7.4,2.9v.6c2.9,0,5.4.9,7.6,2.2,2.2,1.4,3.7,3.2,4.9,5.7,1,2.4,1.2,5.2.7,8.5-.6,3.7-2.1,7.1-4.6,10s-5.6,5.2-9.5,6.9c-3.9,1.6-8.4,2.5-13.2,2.5H3.3ZM24.5,62.7h8.7c3.1,0,5.5-.6,7.2-1.7s2.9-2.9,3.1-5.2c.2-1.6.1-3-.4-4.1-.5-1.1-1.5-2-2.7-2.5-1.2-.6-2.9-.9-4.7-.9h-9s-2.2,14.5-2.2,14.5ZM28.8,36.7h7.6c1.6,0,3.1-.2,4.4-.7,1.4-.5,2.5-1.2,3.4-2.2s1.4-2.1,1.6-3.5c.4-2.1-.1-3.7-1.5-4.9s-3.1-1.6-5.5-1.6h-7.9l-2.1,13.1h0Z"/>
      <path class="st1" d="M66.7,77.6l8.6-51.5h18.5l-8.6,51.5h-18.5ZM85.3,20.7c-2.5,0-4.5-.9-6.1-2.5-1.5-1.6-2.1-3.6-1.7-6,.4-2.4,1.6-4.4,3.7-6s4.4-2.5,6.9-2.5,4.5.9,6,2.5c1.5,1.6,2,3.6,1.6,6-.4,2.2-1.5,4.2-3.6,6-2,1.6-4.4,2.5-6.9,2.5h.1Z"/>
      <path class="st1" d="M94.6,77.6l8.6-51.5h18l-1.6,9.7h.5c1.5-3.6,3.5-6.2,5.7-8,2.4-1.6,4.9-2.5,7.6-2.5s1.6,0,2.4.1c.7,0,1.5.2,2.2.5l-2.6,15.9c-.9-.4-2-.6-3.2-.7s-2.5-.2-3.5-.2c-1.7,0-3.5.4-5,1.2-1.5.9-2.9,2-4,3.4-1.1,1.5-1.7,3.1-2.1,5.1l-4.4,26.9h-18.6Z"/>
      <path class="st1" d="M135.2,77.6l11.4-68.7h18.5l-4.2,26.1h.2c1-1.7,2.1-3.4,3.7-4.9s3.4-2.6,5.4-3.5,4.4-1.4,7-1.4,6.5.9,9.2,2.7,4.7,4.6,6.1,8.5c1.2,3.9,1.4,9,.4,15.1-1,6-2.7,10.9-5.2,14.7s-5.5,6.9-8.9,8.7c-3.4,1.9-6.9,2.9-10.6,2.9s-4.5-.4-6.2-1.2c-1.7-.7-3.1-1.9-4.2-3.2s-1.9-2.9-2.2-4.6h-.5l-1.4,8.5h-18.4v.2ZM157.6,51.8c-.4,2.5-.4,4.6,0,6.5s1.1,3.2,2.1,4.2c1,1,2.4,1.5,4.1,1.5s3.2-.5,4.6-1.5c1.4-1,2.5-2.4,3.5-4.2s1.6-4,2-6.5.4-4.7,0-6.5c-.4-1.9-1-3.2-2-4.2-1-1-2.4-1.5-4.1-1.5s-3.2.5-4.6,1.5c-1.4,1-2.5,2.4-3.5,4.2s-1.6,4-2,6.5h-.1Z"/>
      <path class="st1" d="M221.1,78.6c-5.6,0-10.2-1.1-13.7-3.4-3.6-2.2-6.1-5.4-7.6-9.4-1.5-4-1.7-8.6-.9-13.9.9-5.2,2.7-9.9,5.5-13.9s6.4-7.1,10.7-9.4,9.4-3.4,15-3.4,10.1,1.1,13.7,3.4c3.6,2.2,6.1,5.4,7.6,9.4,1.5,4,1.7,8.6.9,13.9-.9,5.2-2.7,9.9-5.5,13.9-2.7,4-6.4,7.1-10.7,9.4-4.4,2.2-9.4,3.4-14.9,3.4h-.1ZM223.3,64.8c1.6,0,3.1-.5,4.4-1.6,1.4-1,2.5-2.5,3.4-4.5,1-2,1.6-4.2,2.1-7,.5-2.7.5-5,.2-7s-1-3.4-2-4.5c-1-1-2.2-1.6-3.9-1.6s-3.1.5-4.4,1.6c-1.4,1-2.5,2.5-3.4,4.5-.9,2-1.6,4.2-2.1,7-.5,2.6-.5,5-.2,7s1,3.5,2,4.5,2.2,1.6,3.9,1.6Z"/>
      <path class="st1" d="M278.9,48.6l-4.9,29h-18.5l8.6-51.5h17.6l-1.6,9.7h.5c1.6-3.2,4-5.9,7.1-7.7s6.6-2.7,10.4-2.7,6.6.9,9.1,2.5c2.4,1.6,4.1,4,5.1,6.9,1,2.9,1.1,6.2.5,10l-5.5,32.9h-18.5l4.9-29c.4-2.5,0-4.5-.9-6-1-1.5-2.7-2.1-5.1-2.1s-2.9.4-4.1,1-2.2,1.6-3.1,2.9-1.4,2.6-1.6,4.4h0Z"/>
      <path class="st1" d="M341,78.6c-5.5,0-10.1-1-13.7-3.1-3.6-2.1-6.1-5.1-7.6-9.1s-1.7-8.7-.7-14.2c.9-5.4,2.7-10,5.5-14s6.4-7.1,10.6-9.2c4.2-2.2,9.1-3.4,14.4-3.4s7.2.6,10.2,1.7c3,1.2,5.4,3,7.2,5.2,1.9,2.2,3.1,5.1,3.7,8.4.6,3.2.6,6.9,0,11l-.6,4.2h-46l1.6-10.2h29c.2-1.5,0-2.7-.4-3.9-.5-1.1-1.2-2-2.4-2.6s-2.4-1-3.9-1-3,.4-4.2,1c-1.4.6-2.5,1.5-3.4,2.7-.9,1.1-1.5,2.5-1.9,4.1l-2,10.7c-.2,1.6-.1,3.1.2,4.4.5,1.2,1.2,2.4,2.5,3s2.6,1.1,4.5,1.1,2.5-.1,3.6-.5c1.1-.4,2.1-.9,3-1.5s1.6-1.5,2.1-2.5h16.9c-1.2,3.6-3.1,6.6-5.7,9.2s-5.7,4.6-9.6,6.1c-3.7,1.5-8.1,2.1-12.9,2.1h-.1Z"/>
    </g>
  </g>
</svg>