<svg xmlns="http://www.w3.org/2000/svg" version="1.1" xmlns:xlink="http://www.w3.org/1999/xlink" xmlns:svgjs="http://svgjs.dev/svgjs" width="174.03" height="174.03"><svg id="SvgjsSvg1184" xmlns="http://www.w3.org/2000/svg" viewBox="0 0 174.03 174.03">
  <defs>
    <style>
      .cls-1 {
        fill: #010101;
      }

      .cls-2 {
        fill: #1d1d1b;
      }

      .cls-3 {
        fill: #fff;
      }
    </style>
  </defs>
  <g>
    <rect class="cls-3" x="4" y="35.1" width="166.03" height="103.83"></rect>
    <path class="cls-2" d="M174.03,142.93H0V31.1h174.03v111.83ZM8,134.93h158.03V39.1H8v95.83Z"></path>
  </g>
  <g>
    <path class="cls-2" d="M33.08,96.07v-39.7h-10.39v39.71c-1.83,1.51-3,3.79-3,6.34s1.17,4.83,3,6.34v7.22h10.39v-7.21c1.83-1.51,3-3.8,3-6.35s-1.17-4.84-3-6.35ZM32.28,102.42c0,1.89-1.2,3.5-2.87,4.11-.07.04-.14.06-.22.08-.41.13-.85.2-1.3.2-2.43,0-4.4-1.96-4.4-4.39,0-.79.2-1.52.57-2.16.75-1.33,2.18-2.23,3.83-2.23s3.07.9,3.82,2.23c.37.64.57,1.37.57,2.16Z"></path>
    <g>
      <path class="cls-1" d="M140.79,95.8v-39.3h-9.3l-33.79,33.88c.96,2.3,1.48,4.73,1.48,7.25,0,3.05-.76,5.97-2.16,8.64h24.54v9.57h19.24v-9.57h9.75v-10.48h-9.75ZM121.55,95.8h-14.53l14.53-14.45v14.45Z"></path>
      <path class="cls-1" d="M95.32,95.8c0,2.34-.57,4.58-1.61,6.67-3.86,7.78-14.29,13.37-26.46,13.37-9.57,0-18.67-3.68-22.99-8.64l5.61-7.18c2.85,1.84,7.18,5.34,15.08,5.34,7,0,11.87-4.33,11.87-9.57,0-5.8-5.52-9.57-11.87-9.57s-9.57,2.39-11.5,3.86l-5.61-7,16.1-16.1h-17.85v-10.49h46.28v9.3l-12.15,12.24c7.24,2.69,12.68,7.63,14.47,13.52h0c.41,1.38.63,2.79.63,4.24Z"></path>
    </g>
  </g>
</svg><style>@media (prefers-color-scheme: light) { :root { filter: none; } }
@media (prefers-color-scheme: dark) { :root { filter: none; } }
</style></svg>