<svg xmlns="http://www.w3.org/2000/svg" version="1.1" xmlns:xlink="http://www.w3.org/1999/xlink" xmlns:svgjs="http://svgjs.dev/svgjs" width="1000" height="1000"><g clip-path="url(#SvgjsClipPath1102)"><rect width="1000" height="1000" fill="#282828"></rect><g transform="matrix(5.141975661315203,0,0,5.141975661315203,50,50)"><svg xmlns="http://www.w3.org/2000/svg" version="1.1" xmlns:xlink="http://www.w3.org/1999/xlink" xmlns:svgjs="http://svgjs.dev/svgjs" width="175.03" height="175.03"><svg id="Calque_2" xmlns="http://www.w3.org/2000/svg" viewBox="0 0 175.03 175.03">
  <defs>
    <style>
      .cls-1 {
        fill: #fff;
      }

      .cls-2 {
        fill: #282828;
        stroke: #1d1d1b;
        stroke-miterlimit: 10;
      }
    </style>
  <clipPath id="SvgjsClipPath1102"><rect width="1000" height="1000" x="0" y="0" rx="350" ry="350"></rect></clipPath></defs>
  <g id="Calque_1-2" data-name="Calque_1">
    <rect class="cls-2" x=".5" y=".5" width="174.03" height="174.03"></rect>
    <g>
      <path class="cls-1" d="M29.9,98.47v-43.95h-11.5v43.97c-2.03,1.67-3.32,4.2-3.32,7.02s1.3,5.34,3.32,7.01v8h11.5v-7.99c2.03-1.67,3.32-4.2,3.32-7.02s-1.3-5.36-3.32-7.03ZM29.02,105.5c0,2.68-2.18,4.86-4.86,4.86s-4.87-2.18-4.87-4.86c0-.87.22-1.69.63-2.39.83-1.48,2.41-2.48,4.24-2.48s3.4,1,4.23,2.48c.41.7.63,1.52.63,2.39Z"></path>
      <g>
        <path class="cls-1" d="M149.16,98.17v-43.51h-10.29l-37.42,37.52c1.07,2.55,1.64,5.24,1.64,8.03,0,3.37-.84,6.61-2.39,9.57h27.16v10.59h21.3v-10.59h10.79v-11.6h-10.79ZM127.86,98.17h-16.09l16.09-16v16Z"></path>
        <path class="cls-1" d="M98.82,98.17c0,2.59-.63,5.07-1.78,7.39-4.27,8.61-15.82,14.81-29.3,14.81-10.59,0-20.67-4.07-25.46-9.57l6.21-7.94c3.16,2.04,7.94,5.91,16.7,5.91,7.75,0,13.14-4.8,13.14-10.59,0-6.42-6.11-10.59-13.14-10.59s-10.59,2.65-12.73,4.27l-6.21-7.75,17.83-17.83h-19.76v-11.62h51.24v10.29l-13.45,13.55c8.02,2.98,14.04,8.44,16.02,14.96h0c.46,1.52.7,3.09.7,4.7Z"></path>
      </g>
    </g>
  </g>
</svg></svg></g></g></svg>