<?xml version="1.0" encoding="UTF-8"?>
<svg id="Calque_1" data-name="Calque 1" xmlns="http://www.w3.org/2000/svg" viewBox="0 0 2000 2000">
  <defs>
    <style>
      .cls-1 {
        fill: #e62d1f;
      }
    </style>
  </defs>
  <path class="cls-1" d="M386.5,1672.76l223.38-1345.52h583.41c102.49,0,186.37,13.8,251.63,41.39,65.7,27.59,112.13,66.57,139.28,116.94,27.6,50.37,35.7,109.72,24.31,178.04-8.76,49.06-27.59,93.95-56.5,134.68-28.47,40.29-64.61,74.46-108.4,102.49-43.36,27.59-91.76,46.65-145.19,57.16l-2.63,13.14c57.82,1.75,108.18,16.21,151.11,43.36,42.92,26.72,74.46,63.95,94.61,111.69,20.15,47.3,24.96,102.49,14.45,165.56-12.27,73.58-42.27,139.06-90.01,196.44-47.74,57.38-109.72,102.49-185.93,135.34-76.21,32.85-162.93,49.27-260.17,49.27H386.5ZM801.72,1381.05h170.82c60.44,0,107.97-11.61,142.57-34.82,35.04-23.21,55.84-57.16,62.41-101.83,5.26-31.54,2.63-58.25-7.88-80.15-10.51-21.9-28.25-38.54-53.22-49.93-24.96-11.39-56.28-17.08-93.95-17.08h-176.07l-44.68,283.82ZM885.82,871.23h149.8c31.54,0,60.44-5.04,86.72-15.11,26.28-10.07,47.96-24.75,65.04-44.02,17.08-19.27,27.81-42.49,32.19-69.64,6.57-42.05-3.5-74.02-30.22-95.92-26.28-21.9-61.76-32.85-106.43-32.85h-155.05l-42.05,257.54Z"/>
</svg>