<?xml version="1.0" encoding="UTF-8"?>
<svg xmlns="http://www.w3.org/2000/svg" viewBox="0 0 183.6 183.6">
  <defs>
    <style>
      .cls-1 {
        fill: none;
      }

      .cls-2 {
        fill: #fff;
      }
    </style>
  </defs>
  <g id="Calque_2">
    <rect class="cls-1" x="-49.93" y="-49.93" width="283.46" height="283.46"/>
  </g>
  <g id="Calque_1">
    <path class="cls-2" d="M178.81,147.71H4.78V35.89h174.03v111.83ZM12.78,139.71h158.03V43.89H12.78v95.83Z"/>
    <g>
      <path class="cls-2" d="M37.86,100.85v-39.7h-10.39v39.71c-1.83,1.51-3,3.79-3,6.34s1.17,4.82,3,6.33v7.23h10.39v-7.22c1.83-1.51,3-3.79,3-6.34s-1.17-4.84-3-6.35ZM37.06,107.2c0,2.42-1.97,4.39-4.39,4.39s-4.4-1.97-4.4-4.39c0-.79.2-1.53.57-2.16.75-1.34,2.18-2.24,3.83-2.24s3.07.9,3.82,2.24c.37.63.57,1.37.57,2.16Z"/>
      <g>
        <path class="cls-2" d="M145.57,100.58v-39.3h-9.3l-33.79,33.88c.96,2.3,1.48,4.73,1.48,7.25,0,3.05-.76,5.97-2.16,8.64h24.54v9.57h19.24v-9.57h9.75v-10.48h-9.75ZM126.34,100.58h-14.53l14.53-14.45v14.45Z"/>
        <path class="cls-2" d="M100.1,100.58c0,2.34-.57,4.58-1.61,6.67-3.86,7.78-14.29,13.37-26.46,13.37-9.57,0-18.67-3.68-22.99-8.64l5.61-7.18c2.85,1.84,7.18,5.34,15.08,5.34,7,0,11.87-4.33,11.87-9.57,0-5.8-5.52-9.57-11.87-9.57s-9.57,2.39-11.5,3.86l-5.61-7,16.1-16.1h-17.85v-10.49h46.28v9.3l-12.15,12.24c7.24,2.69,12.68,7.63,14.47,13.52h0c.41,1.38.63,2.79.63,4.24Z"/>
      </g>
    </g>
  </g>
</svg>